<svg width="16" height="16" viewBox="0 0 16 16" fill="none" xmlns="http://www.w3.org/2000/svg">
<g id="material-symbols-light:fitness-center">
<path id="Vector" d="M9.06134 14.2667L8.46134 13.6667L10.828 11.3001L4.7 5.17207L2.33334 7.53873L1.73334 6.93873L2.69267 5.97207L2.09267 5.37207L3.49267 3.97207L2.55934 3.03073L3.03067 2.5594L3.972 3.49273L5.372 2.09273L5.972 2.69273L6.93867 1.7334L7.53867 2.3334L5.172 4.70007L11.3 10.8281L13.6667 8.4614L14.2667 9.0614L13.308 10.0281L13.908 10.6281L12.508 12.0281L13.4413 12.9694L12.9693 13.4414L12.028 12.5081L10.628 13.9081L10.028 13.3081L9.06134 14.2667Z" fill="#E6E6E6"/>
</g>
</svg>
